HIERARCHY
ROOT SpineBase
{
  OFFSET 0.000000 0.000000 0.000000
  CHANNELS 6 Xposition Yposition Zposition Zrotation Xrotation Yrotation
  JOINT SpineMid
  {
    OFFSET 0.000000 24.234998 0.000000
    CHANNELS 3 Zrotation Xrotation Yrotation
    JOINT SpineShoulder
    {
      OFFSET 0.000792 18.212750 -0.557611
      CHANNELS 3 Zrotation Xrotation Yrotation
      JOINT Neck
      {
        OFFSET -0.015582 6.106144 -0.448828
        CHANNELS 3 Zrotation Xrotation Yrotation
        JOINT Head
        {
          OFFSET 3.038739 12.674465 1.965551
          CHANNELS 3 Zrotation Xrotation Yrotation
          End Site
          {
            OFFSET 0 0 0
          }
        }
      }
      JOINT ShoulderLeft
      {
        OFFSET -12.625216 -1.163908 -9.891005
        CHANNELS 3 Zrotation Xrotation Yrotation
        JOINT ElbowLeft
        {
          OFFSET -3.942131 -18.158888 -7.279501
          CHANNELS 3 Zrotation Xrotation Yrotation
          JOINT WristLeft
          {
            OFFSET 7.036405 -17.415774 -7.492610
            CHANNELS 3 Zrotation Xrotation Yrotation
            JOINT HandLeft
            {
              OFFSET -0.564430 -1.750131 -0.078011
              CHANNELS 3 Zrotation Xrotation Yrotation
              JOINT HandTipLeft
              {
                OFFSET 1.639821 0.466367 -4.407706
                CHANNELS 3 Zrotation Xrotation Yrotation
                End Site
                {
                  OFFSET 0 0 0
                }
              }
              JOINT ThumbLeft
              {
                OFFSET -3.234217 -0.433842 0.104694
                CHANNELS 3 Zrotation Xrotation Yrotation
                End Site
                {
                  OFFSET 0 0 0
                }
              }
            }
          }
        }
      }
      JOINT ShoulderRight
      {
        OFFSET 13.895931 -5.326904 1.952503
        CHANNELS 3 Zrotation Xrotation Yrotation
        JOINT ElbowRight
        {
          OFFSET 4.513843 -23.307347 -1.394541
          CHANNELS 3 Zrotation Xrotation Yrotation
          JOINT WristRight
          {
            OFFSET 2.542493 -6.285536 -20.615213
            CHANNELS 3 Zrotation Xrotation Yrotation
            JOINT HandRight
            {
              OFFSET -2.396346 -0.138796 -16.418461
              CHANNELS 3 Zrotation Xrotation Yrotation
              JOINT HandTipRight
              {
                OFFSET -0.626140 -0.944523 -2.931347
                CHANNELS 3 Zrotation Xrotation Yrotation
                End Site
                {
                  OFFSET 0 0 0
                }
              }
              JOINT ThumbRight
              {
                OFFSET -5.307522 1.792592 -0.901178
                CHANNELS 3 Zrotation Xrotation Yrotation
                End Site
                {
                  OFFSET 0 0 0
                }
              }
            }
          }
        }
      }
    }
  }
  JOINT HipLeft
  {
    OFFSET -6.345533 1.671262 -5.720267
    CHANNELS 3 Zrotation Xrotation Yrotation
    JOINT KneeLeft
    {
      OFFSET 9.651280 1.717114 -29.922092
      CHANNELS 3 Zrotation Xrotation Yrotation
      JOINT AnkleLeft
      {
        OFFSET -0.530024 -36.571718 -7.765329
        CHANNELS 3 Zrotation Xrotation Yrotation
        JOINT FootLeft
        {
          OFFSET 3.725598 -2.431139 -12.168616
          CHANNELS 3 Zrotation Xrotation Yrotation
          End Site
          {
            OFFSET 0 0 0
          }
        }
      }
    }
  }
  JOINT HipRight
  {
    OFFSET 6.062018 0.892717 -0.228381
    CHANNELS 3 Zrotation Xrotation Yrotation
    JOINT KneeRight
    {
      OFFSET 16.520715 -1.986787 -27.689102
      CHANNELS 3 Zrotation Xrotation Yrotation
      JOINT AnkleRight
      {
        OFFSET -0.938790 -34.878206 -0.708596
        CHANNELS 3 Zrotation Xrotation Yrotation
        JOINT FootRight
        {
          OFFSET -1.714963 -6.281616 -7.532227
          CHANNELS 3 Zrotation Xrotation Yrotation
          End Site
          {
            OFFSET 0 0 0
          }
        }
      }
    }
  }
}
MOTION
Frames: 9
Frame Time: 0.033333
14.889576 43.946351 366.390937 0.573217 4.472737 -24.094662 0.122863 -0.368138 24.089316 0.203313 0.016517 0.055831 6.657851 0.024065 -1.987131 0.000000 0.000000 0.000000 11.117201 -0.751994 -5.137145 -13.307639 -5.003532 5.577450 106.447656 48.595672 -105.897650 151.234110 -36.171976 -152.697763 0.000000 0.000000 0.000000 0.000000 0.000000 0.000000 55.767552 72.712772 -26.049246 5.930959 10.234331 -28.224886 -39.308189 -18.142279 -0.295217 -34.318567 -1.851412 11.055403 0.000000 0.000000 0.000000 0.000000 0.000000 0.000000 1.255050 -4.497873 22.892529 -0.204883 1.284847 1.275229 -8.563480 -26.512874 -9.887173 0.000000 0.000000 0.000000 -0.663605 -17.134580 16.271976 1.773686 19.379417 7.765182 -4.840506 -0.585471 6.134908 0.000000 0.000000 0.000000
14.870209 44.066656 366.412559 0.498573 4.447764 -23.477211 0.150972 -0.343644 23.475131 0.150018 -0.040395 0.048632 6.605344 -0.358541 -1.830055 0.000000 0.000000 0.000000 11.149851 -0.630321 -5.136282 -13.748609 -6.240266 5.290210 102.841268 48.594465 -99.676836 150.253780 -42.528352 -149.319415 0.000000 0.000000 0.000000 0.000000 0.000000 0.000000 21.840580 72.763503 -0.308811 7.086768 17.073340 -16.266262 -28.910156 -15.755985 -7.119388 -39.974291 -10.338188 13.944222 0.000000 0.000000 0.000000 0.000000 0.000000 0.000000 1.263853 -4.392242 22.359940 -0.157315 1.290645 1.176263 -8.472483 -26.261200 -9.655041 0.000000 0.000000 0.000000 -0.911193 -17.679484 15.781709 2.094556 19.406994 7.555265 -2.084940 5.534446 2.147724 0.000000 0.000000 0.000000
14.857928 44.198950 366.430405 0.427110 4.418118 -22.977496 0.174570 -0.333216 22.977948 0.106872 -0.101205 0.042103 6.628679 -0.639900 -1.710773 0.000000 0.000000 0.000000 11.150946 -0.494100 -5.127181 -14.228276 -7.581186 4.955219 100.857925 48.840386 -96.196040 150.217663 -42.245367 -148.099457 0.000000 0.000000 0.000000 0.000000 0.000000 0.000000 0.994038 71.058763 14.957735 7.096994 21.110644 -7.344684 -17.969166 -13.027268 -15.112988 -46.070079 -20.463680 15.854407 0.000000 0.000000 0.000000 0.000000 0.000000 0.000000 1.279746 -4.295774 21.937652 -0.077096 1.205758 1.080461 -8.419630 -25.977072 -9.126971 0.000000 0.000000 0.000000 -1.251997 -18.750940 15.402738 2.454933 19.818353 7.356750 1.262905 10.155653 -1.860701 0.000000 0.000000 0.000000
14.852949 44.313968 366.452548 0.374702 4.384089 -22.633329 0.195659 -0.326944 22.635852 0.069038 -0.161568 0.036695 6.581494 -0.849142 -1.608529 0.000000 0.000000 0.000000 11.139866 -0.332704 -5.129820 -14.606239 -8.788852 4.629213 99.917065 49.505073 -94.844478 147.566585 -44.931201 -146.364358 0.000000 0.000000 0.000000 0.000000 0.000000 0.000000 -3.969214 70.672758 18.539110 11.941056 22.663138 -8.604867 -19.588407 -12.298617 -15.093192 -47.532891 -23.671862 13.982238 0.000000 0.000000 0.000000 0.000000 0.000000 0.000000 1.287782 -4.208224 21.628178 -0.008567 1.099041 1.030455 -8.327759 -25.614804 -8.498734 0.000000 0.000000 0.000000 -1.544409 -19.694754 15.201797 2.881828 20.308091 7.106935 7.522863 16.563355 -9.513613 0.000000 0.000000 0.000000
14.852921 44.398824 366.470036 0.329750 4.347035 -22.488892 0.203374 -0.342677 22.491945 0.020432 -0.229344 0.029351 6.655265 -0.931988 -1.548716 0.000000 0.000000 0.000000 11.171811 -0.193046 -5.126813 -14.837270 -9.562507 4.395238 100.421554 50.530721 -96.096329 146.901857 -45.421535 -147.118220 0.000000 0.000000 0.000000 0.000000 0.000000 0.000000 18.765068 71.957825 2.062879 5.443344 25.356464 -12.416165 -13.276455 -10.965254 -19.983690 -50.582710 -28.205879 12.795263 0.000000 0.000000 0.000000 0.000000 0.000000 0.000000 1.305776 -4.159273 21.508849 0.070857 0.974377 0.991846 -8.145284 -24.992294 -7.838580 0.000000 0.000000 0.000000 -1.654688 -20.040572 15.092049 3.061893 20.595516 7.025004 11.797050 19.119079 -14.522455 0.000000 0.000000 0.000000
14.856152 44.448372 366.486740 0.309402 4.298698 -22.562713 0.196205 -0.353903 22.565192 -0.018924 -0.277186 0.023461 6.581438 -0.900977 -1.513804 0.000000 0.000000 0.000000 11.211575 -0.053352 -5.138712 -14.949448 -9.986021 4.273033 102.469187 51.619543 -99.716515 146.201959 -44.752417 -148.464976 0.000000 0.000000 0.000000 0.000000 0.000000 0.000000 54.049697 68.315205 -22.824393 -4.856722 32.561237 -18.622988 -8.252673 -10.172566 -22.990623 -52.393755 -30.303732 8.605126 0.000000 0.000000 0.000000 0.000000 0.000000 0.000000 1.314915 -4.164568 21.568467 0.190436 0.931455 0.986254 -8.153496 -24.763677 -7.268789 0.000000 0.000000 0.000000 -1.598929 -19.866108 15.169540 3.057149 20.659350 7.027926 13.837616 19.165432 -16.833655 0.000000 0.000000 0.000000
14.884867 44.454606 366.507345 0.317309 4.256742 -22.870990 0.163880 -0.363271 22.871033 -0.054062 -0.304154 0.018242 6.533480 -0.912858 -1.477984 0.000000 0.000000 0.000000 11.227012 -0.008463 -5.120424 -14.803508 -9.873362 4.254151 105.730836 52.037209 -104.768276 143.952557 -33.485557 -146.898334 0.000000 0.000000 0.000000 0.000000 0.000000 0.000000 80.122782 61.031674 -37.593909 -8.684004 37.359566 -30.893467 -16.524882 -17.045789 -20.409655 -47.861285 -25.141918 8.796806 0.000000 0.000000 0.000000 0.000000 0.000000 0.000000 1.324682 -4.266104 21.869799 0.286424 0.991023 0.982648 -8.181144 -24.669309 -7.053575 0.000000 0.000000 0.000000 -1.389130 -19.281550 15.501733 2.878629 20.559209 7.064110 13.924539 17.039501 -16.727239 0.000000 0.000000 0.000000
14.889137 44.391857 366.508421 0.281701 4.257108 -23.091456 0.162706 -0.377706 23.091095 -0.099315 -0.295272 0.011243 6.558196 -0.957132 -1.446636 0.000000 0.000000 0.000000 11.267043 -0.049402 -5.078944 -14.485497 -9.242622 4.375781 108.209561 51.945240 -108.712168 147.291921 -33.910111 -150.658846 0.000000 0.000000 0.000000 0.000000 0.000000 0.000000 95.108275 54.570603 -43.587697 -14.143297 46.478496 -36.543756 -16.838817 -10.328553 -18.008676 -47.947182 -27.534387 -5.266379 0.000000 0.000000 0.000000 0.000000 0.000000 0.000000 1.385802 -4.447804 22.009662 0.182779 0.380890 1.118392 -7.804854 -23.485062 -6.884710 0.000000 0.000000 0.000000 -1.071830 -18.273912 15.645013 2.543116 20.236530 7.221558 12.232091 12.524595 -14.367110 0.000000 0.000000 0.000000
14.866707 44.353994 366.462622 0.213402 4.339744 -23.091166 0.190270 -0.412078 23.091894 -0.114102 -0.312057 0.007087 6.501419 -1.019453 -1.409280 0.000000 0.000000 0.000000 11.301854 -0.096190 -5.045411 -13.863178 -8.123936 4.593617 111.788987 51.235259 -114.410894 144.208319 -32.182283 -148.730148 0.000000 0.000000 0.000000 0.000000 0.000000 0.000000 99.644900 53.082663 -45.595033 -15.958895 49.743125 -37.430647 -24.701952 -9.096190 -12.877715 -40.051365 -23.017348 -13.658649 0.000000 0.000000 0.000000 0.000000 0.000000 0.000000 1.498106 -4.787415 21.899618 0.274826 0.656981 1.234776 -7.717979 -23.271021 -6.986198 0.000000 0.000000 0.000000 -1.057814 -18.701322 15.625824 2.584244 20.478229 7.245360 8.744875 9.573115 -9.879609 0.000000 0.000000 0.000000
